<?xml version="1.0" standalone="no"?>
<!DOCTYPE svg PUBLIC "-//W3C//DTD SVG 20010904//EN"
 "http://www.w3.org/TR/2001/REC-SVG-20010904/DTD/svg10.dtd">
<svg version="1.0" xmlns="http://www.w3.org/2000/svg"
 width="512.000000pt" height="512.000000pt" viewBox="0 0 512.000000 512.000000"
 preserveAspectRatio="xMidYMid meet">
<metadata>
Created by potrace 1.16, written by Peter Selinger 2001-2019
</metadata>
<g transform="translate(0.000000,512.000000) scale(0.100000,-0.100000)"
fill="#000000" stroke="none">
<path d="M3145 3918 c-44 -24 -45 -28 -45 -330 l0 -288 -1364 0 -1363 0 -27
-21 -26 -20 0 -699 0 -699 26 -20 27 -21 1363 0 1364 0 0 -290 c0 -275 1 -291
20 -310 25 -25 66 -35 96 -24 19 7 1508 1249 1566 1307 24 22 24 88 1 115 -13
14 -1235 1040 -1536 1289 -31 25 -70 29 -102 11z"/>
</g>
</svg>
