<?xml version="1.0" standalone="no"?>
<!DOCTYPE svg PUBLIC "-//W3C//DTD SVG 20010904//EN"
 "http://www.w3.org/TR/2001/REC-SVG-20010904/DTD/svg10.dtd">
<svg version="1.0" xmlns="http://www.w3.org/2000/svg"
 width="512.000000pt" height="512.000000pt" viewBox="0 0 512.000000 512.000000"
 preserveAspectRatio="xMidYMid meet">
<metadata>
Created by potrace 1.16, written by Peter Selinger 2001-2019
</metadata>
<g transform="translate(0.000000,512.000000) scale(0.100000,-0.100000)"
fill="#000000" stroke="none">
<path d="M2505 5108 c-35 -21 -1509 -1470 -1527 -1502 -32 -56 -16 -125 36
-160 22 -14 68 -16 396 -16 l370 0 2 -962 3 -963 24 -33 c14 -17 43 -41 66
-52 40 -19 62 -20 682 -20 353 0 649 3 658 6 8 4 23 21 33 38 16 29 17 108 20
1009 l3 977 405 0 c359 0 408 2 430 16 52 35 68 104 37 160 -10 18 -359 365
-775 773 l-758 741 -42 0 c-24 0 -52 -6 -63 -12z"/>
<path d="M1854 1136 c-42 -42 -49 -104 -16 -154 34 -52 32 -52 722 -52 690 0
688 0 722 52 33 50 26 112 -16 154 l-34 34 -672 0 -672 0 -34 -34z"/>
<path d="M1908 703 c-15 -2 -41 -18 -57 -34 -71 -70 -29 -189 72 -204 23 -3
326 -5 672 -3 684 3 652 1 692 57 19 28 19 104 0 132 -40 57 -6 54 -707 55
-355 1 -657 -1 -672 -3z"/>
<path d="M1885 226 c-49 -21 -69 -63 -66 -134 1 -13 16 -39 35 -58 l34 -34
672 0 672 0 34 34 c42 42 49 104 16 154 -34 52 -32 52 -724 52 -512 -1 -649
-3 -673 -14z"/>
</g>
</svg>
